/* XPM */
static char *cf15951c371b413de41483e3980116c1T22gqApfe2qC6GCt[] = {
/* columns rows colors chars-per-pixel */
"64 64 23 1 ",
"  c #6B2E19",
". c #8B3B1F",
"X c #9A4223",
"o c #875129",
"O c #875334",
"+ c #AD633C",
"@ c #98867F",
"# c #AC9665",
"$ c #AB976F",
"% c #AB987A",
"& c #AE0484",
"* c #FF00BF",
"= c #8E3CD2",
"- c #AA45FF",
"; c #BA64E1",
": c #BA66EC",
"> c #AB9A85",
", c #DFA1BC",
"< c #CF95C5",
"1 c #CE96CF",
"2 c #FFB8D7",
"3 c #CE99E5",
"4 c #C385F7",
/* pixels */
"----------------------------------------------------------------",
"----------------------------------------------------------------",
"4444444444444444444444444444444444444444444444444444444444444444",
"4444444444444444444444444444444444444444444444444444444444444444",
"4444444444444444444444444444444444444444444444444444444444444444",
"4444444444444444444444444444444444444444444444444444444444444444",
"----------------------------------------------------------------",
"----------------------------------------------------------------",
"----------------------------------------------------------------",
"----------------------------------------------------------------",
"4444444444444444444444444444444444444444444444444444444444444444",
"4444444444444444444444444444444444444444444444444444444444444444",
"4444444444444444444444444444444444444444444444444444444444444444",
"4444444444444444444444444444444444444444444444444444444444444444",
"----------------------------------------------------------------",
"----------------------------------------------------------------",
"----------------------------------------------------------------",
"----------------------------------------------------------------",
"4444444444444444444444444444444444444444444444444444444444444444",
"4444444444444444444444444444444444444444444444444444444444444444",
"4444444444444444444444444444444444333333333344444444444444444444",
"4444444444444444444444444444444444333333333344444444444444444444",
"------------------------------------;;;;;;----------------------",
"------------------------------------;;;;;;----------------------",
"------------------------------------****&&----------------------",
"------------------------------------****&&----------------------",
"4444444444444444444444444444444444********&&44444444444444444444",
"4444444444444444444444444444444444********&&44444444444444444444",
"4444444444444444444444444444444444********&&44444444444444444444",
"4444444444444444444444444444444444********&&44444444444444444444",
"--------------------------------************&&------------------",
"--------------------------------************&&------------------",
"--------------------------------************&&------------------",
"--------------------------------************&&------------------",
"44444444444444XXXXXXXX  444444<<<<<<<<##<<<<<<<<4444444444444444",
"44444444444444XXXXXXXX  444444<<<<<<<<##<<<<<<<<4444444444444444",
"4444444444XXXXXXXX..XXXX    1111111111$$111111111144444444444444",
"4444444444XXXXXXXX..XXXX    1111111111$$111111111144444444444444",
"--------XXXXXXXX..  ..XXXXoooo;;;;;;;;%%;;;;;;;;;;;;------------",
"--------XXXXXXXX..  ..XXXXoooo;;;;;;;;%%;;;;;;;;;;;;------------",
"--------XXXXXXXXXX..XXXX++++OO::::::::>>::::::::::::::----------",
"--------XXXXXXXXXX..XXXX++++OO::::::::>>::::::::::::::----------",
"44444444XXXXXX..XXXXXX..XXXX  44444444@@444444444444444444444444",
"44444444XXXXXX..XXXXXX..XXXX  44444444@@444444444444444444444444",
"44444444XXXX..  ..XX..  ..XX  44444444@@444444444444444444444444",
"44444444XXXX..  ..XX..  ..XX  44444444@@444444444444444444444444",
"--------XXXXXX..XXXXXX..XXXX  --------@@------------------------",
"--------XXXXXX..XXXXXX..XXXX  --------@@------------------------",
"--------XXXXXXXXXX..XXXXXXXX  --------@@------------------------",
"--------XXXXXXXXXX..XXXXXXXX  --------@@------------------------",
"44444444    XXXX..  ..XXXX    44444444@@444444444444444444444444",
"44444444    XXXX..  ..XXXX    44444444@@444444444444444444444444",
"444444  XX    XXXX..XXXX    ....444444@@444444444444444444444444",
"444444  XX    XXXX..XXXX    ....444444@@444444444444444444444444",
"------  XX..  XXXXXXXXXX  XXXX..------@@------------------------",
"------  XX..  XXXXXXXXXX  XXXX..------@@------------------------",
"======XX....              XX....======@@========================",
"======XX....              XX....======@@========================",
"222222..  ..  XXXXXXXXXX  ..  ..222222@@222222222222222222222222",
"222222..  ..  XXXXXXXXXX  ..  ..222222@@222222222222222222222222",
",,,,,,XX....  XXXXXXXXXX  XX....,,,,,,@@,,,,,,,,,,,,,,,,,,,,,,,,",
",,,,,,XX....  XXXXXXXXXX  XX....,,,,,,@@,,,,,,,,,,,,,,,,,,,,,,,,",
"222222XXXX..  ..........  XXXX..2222@@@@@@2222222222222222222222",
"222222XXXX..  ..........  XXXX..2222@@@@@@2222222222222222222222"
};
