/* XPM */
static char *_0d24d9575fa4978b9b8388539023612UpSfhAXke2Nwmp68[] = {
/* columns rows colors chars-per-pixel */
"64 64 13 1 ",
"  c #74331B",
". c #9A4223",
"X c #9F5136",
"o c #359A23",
"O c #FFF700",
"+ c #0464BD",
"@ c #D46194",
"# c #FF76B3",
"$ c #0083FF",
"% c #DFA1BC",
"& c #FFB8D7",
"* c #E8C6D5",
"= c #FFDBEB",
/* pixels */
"####====####====####====####====####====####====####====####====",
"####====####====####====####====####====####====####====####====",
"####====####====####====####====####====####====####====####====",
"####====####====####====####====####====####====####====####====",
"####====####====####====####====####====####====####====####====",
"####====####====####====####====####====####====####====####====",
"####====####====####====####====####====####====####====####====",
"####====####====####====####====####====####====####====####====",
"####====####====####====####====####====####====####====####====",
"####====####====####====####====####====####====####====####====",
"####====####====####====####====####====####====####====####====",
"####====####====####====####====####====####====####====####====",
"####====####====####====####====####====####====####====####====",
"####====####====####====####====####====####====####====####====",
"####====####====####====####====####====####====####====####====",
"####====####====####====####====####====####====####====####====",
"####====####====####====####====####====####====####====####====",
"####====####====####====####====####====####====####====####====",
"####====####====####====####====####====####====####====####====",
"####====####====####====####====####====####====####====####====",
"####====####====####====####====####====####====####====####====",
"####====####====####====####====####====####====####====####====",
"####====####====####====####====####====####====####====####====",
"####====####====####====####====####====####====####====####====",
"####====####====####====####====####====####====####====####====",
"####====####====####====####====####====####====####====####====",
"####====####====####====####====####====####====####====####====",
"####====####====####====####====####====####====####====####====",
"####====####====####====####====####====####====####====####====",
"####====####====####====####====####====####====####====####====",
"####====##$$====####====####====####====####====####====####====",
"####====##$$====####====####====####====####====####====####====",
"####====++$$++==####====####====####====####====####====####====",
"####====++$$++==####====####====####====####====####====####====",
"####==$$$$OO$$$$####====####====####====####====####====####====",
"####==$$$$OO$$$$####====####====####====####====####====####====",
"####====++$$++==####====####====####====####====####====####====",
"####====++$$++==####====####====####====####====####====####====",
"####====##$$====####====####====####====####====####====####====",
"####====##$$====####====####====####====####====####====####====",
"####====##oooo==####====####====####====####====####====####====",
"####====##oooo==####====####====####====####====####====####====",
"####====####oo==####====####====####====####====####====####====",
"####====####oo==####====####====####====####====####====####====",
"####====####oo==####====####====####====####====####====####====",
"####====####oo==####====####====####====####====####====####====",
"####====####oo==####====####====####====####====####====####====",
"####====####oo==####====####====####====####====####====####====",
"####==XX    oo  ..##====####====####====####====####====####====",
"####==XX    oo  ..##====####====####====####====####====####====",
"####==..XXXXXXXX  ##====####====####====####====####====####====",
"####==..XXXXXXXX  ##====####====####====####====####====####====",
"####==..........  ##====####====####====####====####====####====",
"####==..........  ##====####====####====####====####====####====",
"####==..........  ##====####====####====####====####====####====",
"####==..........  ##====####====####====####====####====####====",
"@@@@****......  @@@@****@@@@****@@@@****@@@@****@@@@****@@@@****",
"@@@@****......  @@@@****@@@@****@@@@****@@@@****@@@@****@@@@****",
"&&&&&&&&......  &&&&&&&&&&&&&&&&&&&&&&&&&&&&&&&&&&&&&&&&&&&&&&&&",
"&&&&&&&&......  &&&&&&&&&&&&&&&&&&&&&&&&&&&&&&&&&&&&&&&&&&&&&&&&",
"%%%%%%%%......  %%%%%%%%%%%%%%%%%%%%%%%%%%%%%%%%%%%%%%%%%%%%%%%%",
"%%%%%%%%......  %%%%%%%%%%%%%%%%%%%%%%%%%%%%%%%%%%%%%%%%%%%%%%%%",
"&&&&&&&&......  &&&&&&&&&&&&&&&&&&&&&&&&&&&&&&&&&&&&&&&&&&&&&&&&",
"&&&&&&&&......  &&&&&&&&&&&&&&&&&&&&&&&&&&&&&&&&&&&&&&&&&&&&&&&&"
};
