/* XPM */
static char *_95dfbdcde2c490ebd052e365b627607S70GGk2KLf5kyE7Z[] = {
/* columns rows colors chars-per-pixel */
"64 64 16 1 ",
"  c gray11",
". c #196314",
"X c #7E7E7E",
"o c #963B21",
"O c #C74B27",
"+ c #289621",
"@ c #0077FF",
"# c #B43D9B",
"$ c #FF5ADD",
"% c #67A3E7",
"& c #76B6FF",
"* c #DFA1BC",
"= c #93B0D2",
"- c #FFB8D7",
"; c #ACD0F9",
": c #DAEBFF",
/* pixels */
"&&&&&&&&&&&&;;;;&&&&&&&&&&&&;;;;&&&&&&&&&&&&;;;;&&&&&&&&&&&&;;;;",
"&&&&&&&&&&&&;;;;&&&&&&&&&&&&;;;;&&&&&&&&&&&&;;;;&&&&&&&&&&&&;;;;",
"&&&&&&&&&&&&;;;;&&&&&&&&&&&&;;;;&&&&&&&&&&&&;;;;&&&&&&&&&&&&;;;;",
"&&&&&&&&&&&&;;;;&&&&&&&&&&&&;;;;&&&&&&&&&&&&;;;;&&&&&&&&&&&&;;;;",
"&&&&;;;;&&&&&&&&&&&&;;;;&&&&&&&&&&&&;;;;&&&&&&&&&&&&;;;;&&&&&&&&",
"&&&&;;;;&&&&&&&&&&&&;;;;&&&&&&&&&&&&;;;;&&&&&&&&&&&&;;;;&&&&&&&&",
"&&&&;;;;&&&&&&&&&&&&;;;;&&&&&&&&&&&&;;;;&&&&&&&&&&&&;;;;&&&&&&&&",
"&&&&;;;;&&&&&&&&&&&&;;;;&&&&&&&&&&&&;;;;&&&&&&&&&&&&;;;;&&&&&&&&",
"&&&&&&&&&&$$$$$$$$$$$$$$XXXXXXXXXXXXXXXX$$$$$$$$$$$$##&&&&&&;;;;",
"&&&&&&&&&&$$$$$$$$$$$$$$XXXXXXXXXXXXXXXX$$$$$$$$$$$$##&&&&&&;;;;",
"&&&&&&&&&&$$$$$$$$$$$$##::::::::::::::::$$$$$$$$$$$$##&&&&&&;;;;",
"&&&&&&&&&&$$$$$$$$$$$$##::::::::::::::::$$$$$$$$$$$$##&&&&&&;;;;",
"&&&&;;;;&&$$$$$$$$$$$$##@@@@@@::::@@@@@@$$$$$$$$$$$$##;;&&&&&&&&",
"&&&&;;;;&&$$$$$$$$$$$$##@@@@@@::::@@@@@@$$$$$$$$$$$$##;;&&&&&&&&",
"&&&&;;;;&&$$$$$$$$$$$$##@@@@@@::::@@@@@@$$$$$$$$$$$$##;;&&&&&&&&",
"&&&&;;;;&&$$$$$$$$$$$$##@@@@@@::::@@@@@@$$$$$$$$$$$$##;;&&&&&&&&",
"&&&&&&&&&&$$$$$$$$$$##@@@@@@@@::::@@@@@@$$$$$$$$$$$$##&&&&&&;;;;",
"&&&&&&&&&&$$$$$$$$$$##@@@@@@@@::::@@@@@@$$$$$$$$$$$$##&&&&&&;;;;",
"&&&&&&&&&&$$$$$$$$$$##@@++++..::::@@@@@@@@$$$$$$$$$$##&&&&&&;;;;",
"&&&&&&&&&&$$$$$$$$$$##@@++++..::::@@@@@@@@$$$$$$$$$$##&&&&&&;;;;",
"&&&&;;;;&&$$$$$$$$##++++++++++::::..@@@@@@@@$$$$$$$$##;;&&&&&&&&",
"&&&&;;;;&&$$$$$$$$##++++++++++::::..@@@@@@@@$$$$$$$$##;;&&&&&&&&",
"&&&&;;;;&&$$$$##@@++++++++++++::  ..@@@@@@@@@@$$$$$$##;;&&&&&&&&",
"&&&&;;;;&&$$$$##@@++++++++++++::  ..@@@@@@@@@@$$$$$$##;;&&&&&&&&",
"&&&&&&&&&&$$##@@@@++++++++++++::::@@@@@@@@@@@@@@$$$$XX&&&&&&;;;;",
"&&&&&&&&&&$$##@@@@++++++++++++::::@@@@@@@@@@@@@@$$$$XX&&&&&&;;;;",
"&&&&&&&&&&XX::@@@@@@++..OO++..::::@@@@@@@@@@@@@@XXXX##&&&&&&;;;;",
"&&&&&&&&&&XX::@@@@@@++..OO++..::::@@@@@@@@@@@@@@XXXX##&&&&&&;;;;",
"&&&&;;;;&&$$::@@@@@@@@@@OOoo@@::::@@@@@@@@@@@@@@@@$$##;;&&&&&&&&",
"&&&&;;;;&&$$::@@@@@@@@@@OOoo@@::::@@@@@@@@@@@@@@@@$$##;;&&&&&&&&",
"&&&&;;;;&&$$::@@@@@@@@@@OOoo@@::::@@@@@@@@@@@@@@@@$$##;;&&&&&&&&",
"&&&&;;;;&&$$::@@@@@@@@@@OOoo@@::::@@@@@@@@@@@@@@@@$$##;;&&&&&&&&",
"&&&&&&&&&&$$##@@@@@@@@@@OOoo@@::::@@@@@@@@@@@@@@$$$$##&&&&&&;;;;",
"&&&&&&&&&&$$##@@@@@@@@@@OOoo@@::::@@@@@@@@@@@@@@$$$$##&&&&&&;;;;",
"&&&&&&&&&&$$##::::::::::::::::::::::::::::::::::$$$$##&&&&&&;;;;",
"&&&&&&&&&&$$##::::::::::::::::::::::::::::::::::$$$$##&&&&&&;;;;",
"&&&&;;;;&&$$$$##&&&&;;;;&&&&&&&&&&&&;;;;&&&&&&&&$$$$##;;&&&&&&&&",
"&&&&;;;;&&$$$$##&&&&;;;;&&&&&&&&&&&&;;;;&&&&&&&&$$$$##;;&&&&&&&&",
"&&&&;;;;&&$$$$##&&&&;;;;&&&&&&&&&&&&;;;;&&&&&&$$$$$$##;;&&&&&&&&",
"&&&&;;;;&&$$$$##&&&&;;;;&&&&&&&&&&&&;;;;&&&&&&$$$$$$##;;&&&&&&&&",
"&&&&&&&&&&$$$$##&&&&&&&&&&&&;;;;&&&&&&&&&&&&;;$$$$$$##&&&&&&;;;;",
"&&&&&&&&&&$$$$##&&&&&&&&&&&&;;;;&&&&&&&&&&&&;;$$$$$$##&&&&&&;;;;",
"&&&&&&&&&&&&;;;;&&&&&&&&&&&&;;;;&&&&&&&&&&&&;;;;&&&&&&&&&&&&;;;;",
"&&&&&&&&&&&&;;;;&&&&&&&&&&&&;;;;&&&&&&&&&&&&;;;;&&&&&&&&&&&&;;;;",
"&&&&;;;;&&&&&&&&&&&&;;;;&&&&&&&&&&&&;;;;&&&&&&&&&&&&;;;;&&&&&&&&",
"&&&&;;;;&&&&&&&&&&&&;;;;&&&&&&&&&&&&;;;;&&&&&&&&&&&&;;;;&&&&&&&&",
"&&&&;;;;&&&&&&&&&&&&;;;;&&&&&&&&&&&&;;;;&&&&&&&&&&&&;;;;&&&&&&&&",
"&&&&;;;;&&&&&&&&&&&&;;;;&&&&&&&&&&&&;;;;&&&&&&&&&&&&;;;;&&&&&&&&",
"&&&&&&&&&&&&;;;;&&&&&&&&&&&&;;;;&&&&&&&&&&&&;;;;&&&&&&&&&&&&;;;;",
"&&&&&&&&&&&&;;;;&&&&&&&&&&&&;;;;&&&&&&&&&&&&;;;;&&&&&&&&&&&&;;;;",
"&&&&&&&&&&&&;;;;&&&&&&&&&&&&;;;;&&&&&&&&&&&&;;;;&&&&&&&&&&&&;;;;",
"&&&&&&&&&&&&;;;;&&&&&&&&&&&&;;;;&&&&&&&&&&&&;;;;&&&&&&&&&&&&;;;;",
"&&&&;;;;&&&&&&&&&&&&;;;;&&&&&&&&&&&&;;;;&&&&&&&&&&&&;;;;&&&&&&&&",
"&&&&;;;;&&&&&&&&&&&&;;;;&&&&&&&&&&&&;;;;&&&&&&&&&&&&;;;;&&&&&&&&",
"&&&&;;;;&&&&&&&&&&&&;;;;&&&&&&&&&&&&;;;;&&&&&&&&&&&&;;;;&&&&&&&&",
"&&&&;;;;&&&&&&&&&&&&;;;;&&&&&&&&&&&&;;;;&&&&&&&&&&&&;;;;&&&&&&&&",
"%%%%%%%%%%%%====%%%%%%%%%%%%====%%%%%%%%%%%%====%%%%%%%%%%%%====",
"%%%%%%%%%%%%====%%%%%%%%%%%%====%%%%%%%%%%%%====%%%%%%%%%%%%====",
"----------------------------------------------------------------",
"----------------------------------------------------------------",
"****************************************************************",
"****************************************************************",
"----------------------------------------------------------------",
"----------------------------------------------------------------"
};
