/* XPM */
static char *_73fe856c07f4f69b50843ca66a87cablc40FFKsO3C7IwMl[] = {
/* columns rows colors chars-per-pixel */
"64 64 254 2 ",
"   c #27121C",
".  c #2D1924",
"X  c #381927",
"o  c #3C152A",
"O  c #3B2534",
"+  c #362A31",
"@  c #46142C",
"#  c #4B182F",
"$  c #581936",
"%  c #6A183A",
"&  c #43222D",
"*  c #472839",
"=  c #56253C",
"-  c #44343D",
";  c #51313F",
":  c #60263E",
">  c #771B44",
",  c #592942",
"<  c #483A44",
"1  c #573647",
"2  c #682946",
"3  c #772749",
"4  c #64364A",
"5  c #6D2F51",
"6  c #6B3953",
"7  c #753150",
"8  c #783A58",
"9  c #554A4F",
"0  c #5B4954",
"q  c #684657",
"w  c #704D56",
"e  c #78445C",
"r  c #65555B",
"t  c #5E625B",
"y  c #794C63",
"u  c #6F5367",
"i  c #775666",
"p  c #766B6F",
"a  c #90373E",
"s  c #95344C",
"d  c #8E2A50",
"f  c #8A2A54",
"g  c #86365A",
"h  c #95365B",
"j  c #A52E57",
"k  c #843D62",
"l  c #993B63",
"z  c #A53762",
"x  c #B53867",
"c  c #85445F",
"v  c #874868",
"b  c #98456B",
"n  c #84576C",
"m  c #9B4B71",
"M  c #885C73",
"N  c #965875",
"B  c #AE4A71",
"V  c #AA4A75",
"C  c #A55578",
"Z  c #B7547C",
"A  c #886778",
"S  c #876F7A",
"D  c #95657C",
"F  c #C24474",
"G  c #82837D",
"H  c #A95C82",
"J  c #BA5887",
"K  c #8E6D81",
"L  c #986B83",
"P  c #8B7985",
"I  c #977789",
"U  c #9F7E93",
"Y  c #A66986",
"T  c #B86589",
"R  c #A4738B",
"E  c #B6728F",
"W  c #BA6A94",
"Q  c #A97992",
"!  c #B77997",
"~  c #BF7AA5",
"^  c #C6588B",
"/  c #CD5D90",
"(  c #D45B94",
")  c #C4678C",
"_  c #C96794",
"`  c #CB6C9A",
"'  c #D66396",
"]  c #D5659A",
"[  c #DB649B",
"{  c #D46B9C",
"}  c #DC6A9E",
"|  c #C6779A",
" . c #D4729D",
".. c #E3679D",
"X. c #D76AA1",
"o. c #DB6DA2",
"O. c #CB7BA4",
"+. c #D474A3",
"@. c #DC73A4",
"#. c #D87AA7",
"$. c #DC7CAB",
"%. c #DE7DB1",
"&. c #E566A3",
"*. c #E46CA4",
"=. c #EA6DA5",
"-. c #E66EAA",
";. c #ED6DAC",
":. c #F36EAD",
">. c #F86DAD",
",. c #E472A6",
"<. c #EB70A7",
"1. c #E574AC",
"2. c #EC72AD",
"3. c #E47BAC",
"4. c #EB7AAE",
"5. c #F372AE",
"6. c #F675AF",
"7. c #EE6FB0",
"8. c #F56EB0",
"9. c #FB6EB2",
"0. c #FE6FB8",
"q. c #ED74B1",
"w. c #E47CB2",
"e. c #EC7BB3",
"r. c #EA7BB5",
"t. c #F473B2",
"y. c #F973B3",
"u. c #FA76B7",
"i. c #F37AB4",
"p. c #F57DB9",
"a. c #FA7BBA",
"s. c #FA7DC1",
"d. c #8B8688",
"f. c #93848D",
"g. c #9A8892",
"h. c #9A9695",
"j. c #A68696",
"k. c #B6859B",
"l. c #A7949C",
"z. c #B887A2",
"x. c #AB9AA3",
"c. c #B69AA7",
"v. c #BE9FB4",
"b. c #ACA6A9",
"n. c #B6A4AD",
"m. c #B9ABB4",
"M. c #BBB3B8",
"N. c #C3849E",
"B. c #C889A8",
"V. c #D383AA",
"C. c #DB84AC",
"Z. c #D28BAC",
"A. c #C497AD",
"S. c #D292AC",
"D. c #D988B2",
"F. c #DC8BB4",
"G. c #C998B3",
"H. c #DA95B7",
"J. c #D89FB5",
"K. c #E482AC",
"L. c #E484B3",
"P. c #EB83B4",
"I. c #E48BB5",
"U. c #EC85BB",
"Y. c #E689B9",
"T. c #EB8BBC",
"R. c #F384BB",
"E. c #F685B8",
"W. c #F28BBD",
"Q. c #E393BB",
"!. c #EA93BD",
"~. c #E698BC",
"^. c #F294BE",
"/. c #F09ABF",
"(. c #CBAABC",
"). c #C3B5BA",
"_. c #C6C7BA",
"`. c #BABDC0",
"'. c #DF9BC2",
"]. c #ED8DC2",
"[. c #F588C2",
"{. c #F38CC3",
"}. c #EC94C3",
"|. c #E997C6",
" X c #E49CC3",
".X c #EB9BC5",
"XX c #F394C3",
"oX c #FB97C7",
"OX c #F39BC5",
"+X c #F495C9",
"@X c #F49CCC",
"#X c #FB9CCB",
"$X c #F99CD1",
"%X c #DBA9C7",
"&X c #CABAC4",
"*X c #D7B8C8",
"=X c #D9BED1",
"-X c #E7A6C7",
";X c #ECA4CA",
":X c #F3A3CC",
">X c #FAA3CE",
",X c #F4A8CB",
"<X c #E6B6CD",
"1X c #F9B4CF",
"2X c #EEAED2",
"3X c #F7A6D5",
"4X c #FCA4D3",
"5X c #F4ACD3",
"6X c #F9ABD5",
"7X c #EDB3D3",
"8X c #E7B8D4",
"9X c #F7B4D9",
"0X c #FABAE4",
"qX c #FEBCEB",
"wX c #FFBDF1",
"eX c #BEC6C1",
"rX c #C8C5C8",
"tX c #D4C8CD",
"yX c #CFCFD3",
"uX c #DAC9D4",
"iX c #D9D5D6",
"pX c #EACCD8",
"aX c #E5D3DC",
"sX c #E3DADD",
"dX c #DFDDE0",
"fX c #FEC4EC",
"gX c #FBC8EA",
"hX c #E7D9E3",
"jX c #F4DCEB",
"kX c #FEC5F3",
"lX c #FECCF3",
"zX c #FED2F6",
"xX c #DFE3E1",
"cX c #E7E6E6",
"vX c #EBE4E9",
"bX c #EDECEB",
"nX c #F7E3EB",
"mX c #F3E4EC",
"MX c #F2ECED",
"NX c #EDF3EC",
"BX c #F5F4EE",
"VX c #FDE5F3",
"CX c #F4ECF2",
"ZX c #FBEBF5",
"AX c #FEEDFA",
"SX c #EEF7F4",
"DX c #F4F4F3",
"FX c #FAF5F5",
"GX c #F5FAF5",
"HX c #FBFAF5",
"JX c #F7F5F9",
"KX c #FDF5FB",
"LX c #F6FBFA",
"PX c #FCFBFB",
/* pixels */
"K ! AXt.8.:.u.O.HX- >X. z...V T.m p.q.T D ! ZX:.t.:.y.B.PX< 5X. j.*.Z Y.v e.t.W A Y ZX8.1.;.t.B.KX9 >XX Q o.V P.g 1.t.E A R nXi.",
"DXA ^.{.2...Y.t.. FXmXI W.P x JXZXt.XXW.bXM $X[.q.2.U.<.X MXMXI OXA x nXZXt.XXW.MXy ~.{.5.4.e.=.o MXbXI oXu F vXJX1.$X4.CXi :X+X",
"_ | kXi.Y pXv kXy.Y.~.#XlX; bXHXDXfX$. X^ | fX8.R jXn kXa.F.-X4XlX4 vXGXcXlX3. X^  .kX9.Y pXM kXt.T.Z.#XlX1 cXDXcXgX+..X] | fXt.",
"} $.t.T.Z.U Y @.T.t.t.T.L.! m.M D I.6XoX' $.5.T.F.j.Q ,.{.5.t.}.T.! n.A n W.6XoX{ 3.i.}.H.j.R $.{.2.4.T.T.D.n.A n Y.0X#X] 1.y.XX",
"g H P.y.XX=X'.@Xy.t.t.*.+.+.v.8XFXF.! B.b Y P.t.^.=XH.4Xt.2.q.*.V.#.n.8XFXD.J.B.h T P.t.XXuXF.>X;.;.t.o.C.$.m.<XMXL.B.B.g T U.t.",
"b v } >.{ W.{ ] 2.q.-.t.4.u.K.AXP.e.< PXh R 3.9.X.E.@.] 5.8.:.>.2.>.w.KXP.w.* HX3 N 1.y.] E.,.' t.5.t.t.2.>.Y.KXP.L.; PXf T ,.t.",
"GXGXf R.i.Z.A.*.C.+.i.L.5.Q.,.p.].1.FXLXLXFXf U.=.Z.G.X.C.` i.#.4.Q.=.4.Y.P.FXGXDXPXf T.t.F.A.] F.} 4.L.u.I.o.5.].@.CXHXDXKX> }.",
"HXy kXt.$.h.BXf B  X` h ) FXE OXt.kXKXb.PXn lXy.P.h.HXf V -X_ f ) JXE .X5.kXKXn.HXi lXy.e.f.GXh Z -X` 7 ) PXH .Xi.lXKXb.HXy lXt.",
"%XAXt.].F.PXLX, 4 :X:XDXFXLXM.:XF.y.%XhX%XAX5.{.F.PXPX1 6 5XOXKXCXHXM.#XF.9.%XmX2XKX:.}.P.KXLX; 6 >X:XKXDXHXrX#XF.u.%XCX:XAXt.}.",
"sXQ._ @.j.sXt HXyXI.J n.LXKXjXK.4.q.I.p hX;XT <.j.cXp KXsX#.J x.bXLXAX$.i.2.I.p hX~.| 2.I sXd.HXbX#._ x.HXKXmX@.i.q.XXS dX~.+.,.",
"1.oX}...V.i Q r v >X] v %X0 q @.<.r.y.5.3.>XOX..#.r E 9 e 4X] k *Xn & $.;.R.y.;.1.#X.X' | i k.0 N 4X' 8 -Xi q ,.8.e.2.t.=.oX.Xo.",
"^ :X X-Xn FX2XhXQ.0.t.Y.i x.4 #.m. .m 2.^  X.X;Xe JX9XaX Xt.t.U.M m.2 D.).{ b t./ >X;X2Xe PX5XhXQ.y.y.Y.i M.7 C.&X{ b 9.^ :X.X5X",
"T | PX5XV.1 ZXlXt.q.i.8.0X#...u FXe Q r._ ) PX7XB.X PXgXy.1.e.t.0XL.&.w JXy R t.` T FX5XH.* FXlXt.U.q.u.9XL.=.w PXw c.e.` ) DX-X",
"S.eXKXD W.Z K.;.T.a.t.].{.>X{ KXKXPXo :.H.rXPXI oX^ T.y.{.u.8.{.^.:X` ZXPXKX@ 5.H.m.HXI XX^ L.t.].t.;.[.T.,X{ KXHXGX$ t.Z.b.KXK ",
"*.* I +.o.4.p.2.n.h.4 w.Y ~.^.i R & P.q.<.1 P | ,.5.t.e.x.j., V.Y OXOXM U O 5.q.<.u A | 1.:.y.1.x.m.1 @.D ^.XXM K & W.:.*.u A | ",
"*.Q.y R.{ *.t.3.PXPX4 s % | ,.Q.ZX6 5.2.=. Xi U.] <.e.<.KXPX= d > k.o.Q.ZX, u.t.=.~.n R.X.,.t.,.PXPX$ d 3 ! ,.F.CX, t.t.=.-XD U.",
"<.#.:XH.t.:. X= SXPXHXq iX-XT.i.W.t.[.t.:.| #X~.5.y.Y.= PXFXPXq tX7X4.i.U.t.[.q.e.` #XQ.4.t.I.= HXPXHX0 aX7Xi.e.R.y.].:.6.W #X'.",
"hXB k.] e.1.{ AXDXPX_.`.LX$ ` w.y.kX:.q hXB D o.r.-.{ ZXPXPX_.rXLX$ _ w.y.wXa.q hXZ N o.r.4.] AXPXPX_.rXPX$ ` q.y.qXt.q hXZ M ..",
"HXf.DX|.t.:.T.S k.yXDXDX- .Xt.:.XXy.+XA.PXl.PX.Xq.u.XXp k.rXMXMX+ .Xa.q.XXy.#Xl.HXl.PX}.t.t.T.p R rXbXDX1 @Xt.q.{.:.@Xj.KXl.JXOX",
"FXmXCXe.2.1.e.C.t y N A N ( <.;.5.P.u.1 GXcXDX4.t.q.t.C.0 e N A N &.1.t.u.P.t.9 FXcXCX4.;.<.t.C.r y v A n [ -.4.y.1.;.1 LXMXCXi.",
"R Y nX;.:.t.5.| DX< 5X+ Q <.J 3.C 1.-.C I Y jX5.:.8.t.B.PX9 3X+ I &._ Y.m 2.t.H I N jXt.t.8.t.Z.GXr 6XX R <.J R.b 3.q.H I L pX4.",
"DXj.!.T.q.5.T.t.  DXcXI oXK z ZXCXu.Y.e.KXA.oXL.t.2.U.=.. bXcXI }.i B aXhX5.].i.FXz.^.Y.2.5.Y.;.. bXcXS oXq z aXCX6.T.L.NXk.D.Y.",
"J V kXy.R (.A zX5..Xk.@XzXq DXPXcXgX3.H.Z T gXy.Q =XL lXt.5Xz.>XzXq MXHXdXgXo..XJ m fX9.! <XY kX5.Q.R 4XzXq DXHXxXgX@. XZ C fX5.",
"{ L.y.+XB.c.k.{ }.:.;.T.E.B.rXk.A T.9XoX} 3.y.|.Z.c.z.X.oX5.2.].L.S.&Xj.i R.9X!.] 4.i.@XZ.m.k.X..Xy.;.^.e.H.&Xk.i P.0XoX' F.p..X",
"g O.p.q.OX*XS.3Xt.9.t.*.#.@.*X8XFXD.S.B.g W {.5.!.&XS.4X9.t.t.+.$.@.hX8XKXD.-XI.g | R.9.^.&XD.4Xi.t.>.-.L.@.uX8XDXV.%XV.g O.U.q.",
"b N 1.5.o.R.` { :.u.i.8.q.t.W.KXL.i.. FXl E ,.t.^ E.` o.:.2.u.i.2.6.#.KXP.-.. DXl E ,.:.{ e.{ ] y.t.>.8.5.:.I.FX3.e.  DXh | w.y.",
"NXPXf E.=.D.! *.+.' &.D.2.{.4.1.r.L.hXJXbXMXl p.t.F.B.' $.^ &.w.p.Y.-.t.P.L.vXFXLXPXl U.i.I.B.[ L.( *.3.i.T.1.e.R.1.cXHXLXPXh Y.",
"FXD wXt.e.S DX2 z ;X{ m T DXE OXt.fXKX&XGXI fXy.P.S FX3 h ;X` l ) HXE .Xi.qXCX).HXP fX9.e.p NX7 z 2X_ c Z MXY |.5.fXJX).FXI lXy.",
"2XKXt.+XQ.PXHX4 8 5X}.PXbXPXm.OX|.y.8XiX7XKXu.+X!.HXLX= e -X.XJXvXFXb.OX|.9.<XsX7XKX;.$X^.KXPX4 e 6XOXJXvXPX&X#XY.t.8XaX5XAX;.@X",
"rX~.J i.g.cX9 PXiXI.) aXGXLXKX$.u.1.C.j.&X~.W 5.g.vXt GXiX$.H tXFXPXKX@.e.e.T.l.&X-XJ 4.j.cXt PXcXD.J uXPXPXPX+.t.w.U.x.rX.XW 4.",
"U.@XXX=.Z.c.v x.2 OX/ e 8Xq ; 1.<.t.;.8.,.@X}.} K.I b h.2 $X' v %X1 = w.2.t.t.t.e.#XXX=.K.x.v l.2 #X( v (.0 * #.y.t.-.i.q.oX.X] ",
"^ 6X:X;Xi KX;XhXI.t.=.e.i f.e #.j.| Z t./ .X-X:Xc PX9XiX!.5.y.$.M d.4 3.x.` V :.( 6X X:Xe HX5XuXI.>.;.%.y f.y @.n._ V t.( :X-X.X",
"W Z LX2XD.O KXgXy.4.q.u.9X,.=.u LX6 ! e.T ) LX,XH.+ KXgX>.w.$.t.9X#.*.y PX4 R ;.) T FX2XF.& ZXgX9.w.4.y.9XC.<.u PX4 c.w._ ) KX-X",
"J.b.FXI !.^ .Xt.|.u.s.+XoX6X{ FXPXPX@ :.S.h.HXL #X_ }.y.+Xi.y.}.P.5X_ CXPXPXo u.B.h.FXK XX) Y.t.}.:.6.oXT.9X' mXHXBX  5.Z.h.HXL ",
"*.1 A ! 4.i.i.$.x.P N 1.N.oXOXi I o E.1.o.* L ) @.4.=.w.x.P L P.z.@X}.M I & 4.1.;.1 I ) K.t.t.%.c.f.D K.B. X}.M P O {.w.e.1 A _ ",
"} B.L E.#.=.q.1.SXPX8 s % k.,.B.AX5 t.5.*.S.L 4.@.,.5.1.CXPX= j % k.@.| ZX2 q.8.=.H.j.P.#.*.q.4.bXPX, s > ! } O.CX2 u.8.=. XQ U.",
"t.O.@XZ.,.9.!.: FXLXDX; &X7XR.p.a.y.E.t.t.O.4XD.1.t.L.$ FXPXPX1 ).8XR.i.P.y.U.t.t.#.#XF.q.t.Y.$ FXHXPX; ).-XE.u.i.t.Y.t.t.O.#XD.",
"uXB L ' w.3.o.VXPXPXPXtXPX$ _ e.t.qX;.q &XZ A _ e.q.+.VXHXPXHXyXLX$ J 1.y.wX9.r *XZ N ( w.1._ AXPXPXBXyXPX$ ` 1.9.wX:.w tXZ y / ",
"PXp KX@Xt.9.@Xf.R cXNXPX+ 6X2.t.@Xy.$Xn.PXS KX@X7.2.#XP L cXHXPX+ 6X;.;.@Xt.$Xx.HXS PXoX:.t.T.P D hXNXHX- 6Xy.;.+Xt.4Xj.JXS PX@X",
"GXmXCXU.2.5.2.D.9 y v I k.( q.t.>.E.y.1 FXbXDXi.t.5.:.V.9 6 v L ! ..,.q.t.R.y.< DXcXFXi.2.2.q.H.1 y 8 K E [ q.;.8.R.t.; NXMXCXe.",
"c.N uXq.t.y.2.O.FX< 6X- L *.^ 3.) t.q.b v.N =X:.t.y.2.N.PX0 >X- M ..' 4.H t.8.m c.N =X&.5.t.t.#.DXp 4X+ M =.^ 3.V q.2.C (.n &X-.",
"DX<XXXe.t.:.1.t.. mXsXI #XI x nXhXy.U.3.FX(.OXe.y.:.w.6.X BXdXA XXA z aXaX9.[.E.MX-X/.U.t.t.] :.. bXsXp #Xw j uXhXt.T.4.CX<X!.e.",
"Z 3 qXt.! A.R kXt.F.n @XgX1 FXHXcXgX .OX^ 7 kXt.! c.Q qX0.-Xn $XlXq LXHXxXkX{ XX^ 3 qXt.E G.Q fX>.Q.y 4XzXq MXHXiXfX] }.J 2 fX9.",
"} Y.:.@X| ).G.X.}.:.e.OX,.%XsXn.n E.9XoX[ T.a..X| ).G.{ oX:.y.OX$.%XsXc.i W.0XXX} L.y.@XB.).G.o.@X:.5.XX@.-XaXm.n T.0XOX} T.u.@X",
"3 F.{.:.OX(.B.4Xy.:.;.@.H.` aX7XNXD.J.S.7 F.T.y.OX*XB.6Xt.t.5.=.~.| hX9XDXZ.:XS.f F.T.y.XX&XB.4Xi.;.t.o.I.+.hX7XJXV.;XB.g H.T.t.",
"Z 3 4.<.o.E.] *.2.:.t.t.-.5.$.KXI.4.o DXB C -.-.o.4.` { 6.y.t.1.2.e.L.KX .q.. HXz Z q.-.{ oX` ' q.:.t.;.=.t.L.KX$.e.X PXB T 1.;.",
"DXFXJ 4.t.~.| ( $.{ ..T.t.$.o.t.w.3.M.PXJXPXV r.<.~.! o.#.] ,.e.t.#.i.t.w.P.).PXFXKXb %.i.D.| X.w.] [ 1.i.L.*.t.w.1.m.LXPXFXV r.",
"FXx.qXy.4.r SX2 h ;X` C V KX| .Xt.qXKXiXFXx.qXy.%.r LX% d ;X{ C C DX! }.>.0XKXiXDXm.fXq.3.r HX2 h 5X .C C FXE OXt.qXDXtXDXc.kXy.",
"2XKX:.oX/.GXLX, N -XOXJXvXGX&X.X.X:.8XrX8XPXe.$X!.GXPX= N ,X!.KXaXPXM.#X}.t.9XtX7XKXt.3X^.HXLX= N .X.XKXsXLXM.OX!.9.8XyX6XKX2.3X",
"P !.W y.A bXr HXyXV.H KXHXKXKX1.4.Y.V.M.g.!.W y.A vXp HXyXC.J hXDXKXZX@.5.Y.3.&Xg.-XW p.A hXG PXvXK.J ZXGXPXPX,.u.Y.L.*Xd.Q.W i.",
"R.XX}.*.K.8X# iX= W.( v 8Xq q 4.:.;.-.y.4.@X.X=.K.*X: rX@ oX( k *X1 # 3.5.2.2.:.4..X}.o.$.*X= yX# oX( v %X* 6 e.;.4.,.q.e.T.OX} ",
"_ >X>X:Xi HX9XuXL.4.t.w.D u 8 $.L ^ J t.' 4X4X.Xy PX;XtXT.t.t.P.A t 6 $.Q  .J 9./ .X;X;Xq MX6XtXL.t.:.w.A p e $.U ) J 5.{ @X X X",
"T ) KX7XH.& cXgX9.<.w.9.7X` *.i PX1 Q e.T Z DX7XH.O CXgX>.e.t.y.9X .,.y GX1 k.w.) T LX;X~.& mXgXy.@.5.8.7X#.,.u PX4 c.,.) Z KX-X",
"B.h.PXB.XX` .X-.@X5.5.@XT.0XW vXPXHX@ q.Z.p PX! XX$.3X;.$X;.t.@XT.9X/ vXPXPX@ t.Z.p GXj.#X@. Xy.@Xy.=.].P.0X^ vXPXGX@ -.S.p PXQ ",
"-.O n | @.*.y.W.l.q R 1.O.Y.XXD I X e.=.*.< A _ @.E.t.T.l.0 ! e.Z./.#XM A X e.&.=.1 u _ *.<.t.w.x.u I P.~ T.XXL A X Y.2.<.1 K ) ",
"+.B.Q E.w.,.2.t.cXPXe a % | o.R AX= ;.5.<.G.k.3.3.} 1.4.cXLX= s > Q o.W mX= 2.>.=.Z.c.4.$.&.;.,.cXLX, s > Q } E nX$ 1.t.<.~.n.p.",
"5.{ >X#.<.5.W.= DXLXHX; x.-XE.p.i.;.r.:.t.+.>X+.1.t.U.: PXPXHX; x.<XE.p.i.5.e.y.t.$.OXO.=.t.L.$ DXPXPX= l.%XE.i.e.y.R.:.t.O.#X#.",
"j._ e / q.1.{ jXPXFXHXiXHX$ _ t.t.kXt.q j.) 4 ^ 1.-.] mXPXHXHXiXPX$ J e.y.0X8.q Q ^ = ( 4.@.{ CXPXPXHXiXPX$ J 1.9.qXt.y j._ ; ^ ",
"1X1X1X1X1X1X1X1X1X1X1X1X1X1X1X1X1X1X1X1X1X1X1X1X1X1X1X1X1X1X1X1X1X1X1X1X1X1X1X1X1X1X1X1X1X1X1X1X1X1X1X1X1X1X1X1X1X1X1X1X1X1X1X1X",
"1X1X1X1X1X1X1X1X1X1X1X1X1X1X1X1X1X1X1X1X1X1X1X1X1X1X1X1X1X1X1X1X1X1X1X1X1X1X1X1X1X1X1X1X1X1X1X1X1X1X1X1X1X1X1X1X1X1X1X1X1X1X1X1X",
"J.J.J.J.J.J.J.J.J.J.J.J.J.J.J.J.J.J.J.J.J.J.J.J.J.J.J.J.J.J.J.J.J.J.J.J.J.J.J.J.J.J.J.J.J.J.J.J.J.J.J.J.J.J.J.J.J.J.J.J.J.J.J.J.",
"J.J.J.J.J.J.J.J.J.J.J.J.J.J.J.J.J.J.J.J.J.J.J.J.J.J.J.J.J.J.J.J.J.J.J.J.J.J.J.J.J.J.J.J.J.J.J.J.J.J.J.J.J.J.J.J.J.J.J.J.J.J.J.J.",
"1X1X1X1X1X1X1X1X1X1X1X1X1X1X1X1X1X1X1X1X1X1X1X1X1X1X1X1X1X1X1X1X1X1X1X1X1X1X1X1X1X1X1X1X1X1X1X1X1X1X1X1X1X1X1X1X1X1X1X1X1X1X1X1X",
"1X1X1X1X1X1X1X1X1X1X1X1X1X1X1X1X1X1X1X1X1X1X1X1X1X1X1X1X1X1X1X1X1X1X1X1X1X1X1X1X1X1X1X1X1X1X1X1X1X1X1X1X1X1X1X1X1X1X1X1X1X1X1X1X"
};
