/* XPM */
static char *d948a05386e34efca10b3f9a3068be190BRx28d8FRiQVAid[] = {
/* columns rows colors chars-per-pixel */
"64 64 79 1 ",
"  c #667692",
". c #687793",
"X c #677894",
"o c #697996",
"O c #6D7D9B",
"+ c #747D97",
"@ c #717E99",
"# c #797F98",
"$ c #6F809E",
"% c #72829D",
"& c #7A849C",
"* c #7C899F",
"= c #6F81A0",
"- c #7182A0",
"; c #7C86A1",
": c #7D8AA2",
"> c #82859D",
", c #88879E",
"< c #818C9D",
"1 c #8C899F",
"2 c #918697",
"3 c #948A9C",
"4 c #9C8D9E",
"5 c #89929F",
"6 c #8186A0",
"7 c #828DA2",
"8 c #8A8AA2",
"9 c #938CA1",
"0 c #9D8FA0",
"q c #8591A4",
"w c #8B95A5",
"e c #8B97A9",
"r c #8D98A9",
"t c #9690A5",
"y c #9D92A5",
"u c #939BA6",
"i c #939CAA",
"p c #A08FA0",
"a c #A493A3",
"s c #AC98A7",
"d c #A697A9",
"f c #AA97A8",
"g c #AD99A9",
"h c #B19BAB",
"j c #9AA0A6",
"k c #97A0AE",
"l c #9BA3AC",
"z c #9DA5B0",
"x c #A1A6AD",
"c c #A5A9AD",
"v c #A8ACAF",
"b c #A0A7B0",
"n c #A3A9B2",
"m c #A4AAB0",
"M c #A7ACB1",
"N c #A4ABB4",
"B c #A6ADB4",
"V c #AAAEB0",
"C c #ACAFB1",
"Z c #AAAFB4",
"A c #ADB0B2",
"S c #ABB1B6",
"D c #AFB3B4",
"F c #ADB3B9",
"G c #AEB4B9",
"H c #B0B3B5",
"J c #B0B4B6",
"K c #B4B7B7",
"L c #B2B7B9",
"P c #B4B7B8",
"I c #B5B8B8",
"U c #B8BBBA",
"Y c #B9BCBB",
"T c #B8BBBC",
"R c #BABDBC",
"E c #BCBFBD",
"W c #BEC0BF",
"Q c #BFC2C0",
"! c #C1C3C1",
/* pixels */
"zJunIBuIB*xl*MIunJi7VZwJRqLLquxqiAFwIS*lJwZIllIz:xk:VTwSJewVnuJQ",
"IvURAWRVEIvDJIJUEcEIcYIJEIYDUIxIRv!UVUPDAIRDEEvWIcJLJIIRvRIxRUA!",
"IxvKMUJlIJVJAVVJIuIIlDcDICDxJIxJJjRDxDJDccIVIJjIJcIAcDAJjIIlDVAQ",
"q@iz@il%el*:i:%liOiiOqx:7lq*lr@uuoul%ql7%lk@ll%ul%qi**lr%liOen*q",
"-7%- OOo$O%:O%oOOo$O*:OOoOOOO$*%%OOOoOO%7$%.OOo=O%:O%oOOoOO*:%oO",
"%mlb<OOO$O%JuZ;oOOOO7LulOoOOOOuMliOoO$o%Din*oOOOO&LwZ%oOOOOwDiu$",
"OqRN@OOoO$OiIbOO$.-%%FL7OOOo$$*FI&OOoOOOuTzOOO.$$OzIiOOO.$$%LG*=",
"-O%-oO$.OOO$%OoO-.O%o-%OOO%OO-o%%.OOoOO@O%-oO-.OOo-%OOOO.O-o-%o-",
"-OOO.OOO%OOOOOoO$OOOoOoO9>d&O$oOOoOO&y&t%oOXOOO$OO$OOOo$OO$oOOoO",
"%oO$X$-o%OOOOOoO-X$O+&O,shh>O%OO$+;->hag>O;+O-o%Oo$OOOO$oO$oOOo$",
"OOoOoOOoOoOOoOOO$.OO>f9ahagy9y&oO>g9asagg9s&OOoOOoOooOo$XOOOOOo-",
"OoOo.OOoOooooOoOOoOO&ha4ssgaas3&63gsasaassa&OOoOOoOOOoOOoOOo$oXO",
"OoOOoOO.$oO%OoXOO.$O#haassaasgahg2gs3gasaag&OO.$Oo-OooOO.OOoOOoO",
"OoO$OOOoOoO$oOOoOoOo#haggasaagssaagaas4sash>OOoOoO$oOOoOooOo$OO-",
"-o$-.OOoOoOOOOoOOo$O&hhaasaaagagh0gs0gsgahh+OOoOoo$OOoOOoO$o-$oO",
"$oOOoOOOOooOoOOoOoOO#haas4gs0g4hsasaagsgasg#oOoOooOoOOoOoO$o%Oo$",
"-OO$O$OoOOOOOOOO$.OO*hsghag4ghsgg4hs0ashggh>O$.$OO$OOOOO.O$O-OO-",
"-oO%X$-oOOOOOOo$-.O=+gsyshgagh4hg3hhpsggasg+$-XO$oOOoo$$XO-o$Oo$",
"-oOO.OOO-oOOo$oo$OOOo6,+aahgahaagagashag*1*.OOO$OOOoOOo$OOOoOO.O",
"$oOOo$-o%OOOOOoO-o$OoOO@sghagh4hh4hhagss@OOo$-o-OoOOOOO%oO$.OOo$",
"OoOOo$Oo$ooOoOOO$oOOo$OOfagass4sg4haasaa@OOoOOo$OoOoOOo$oOOX$Oo-",
"OooOOOOoOOoOoOOoO.OOoooO;363ss4ss4ha3*9&oXOOOOoOOoOooOoOXOOXooO-",
"OXO$o$O.OOoOoooOO.OO.OOOOOo3sg4sa3hs3OOoooOoOO.OOoOoXOOO.OO.OOo$",
"-oOO.OOo$oOOoOoOOoOOo$OoooOaagass3ss9$oOoOO.OOoOOOOoOooOoOOo$OoO",
"$OOOoOOO-OOOoOOoOo$OoOOoOoO6a83gs1,9&$OOOOOooOO%OoOoOOoOOO$oOOoO",
"Oo$OX$Oo$$oOOOoO$X$-o-OoOOOo%$&hg>$OoOOOOOOoOOo$%oOOOOOOo$-o-Oo-",
"-OO$OOOXOO$$oOOo$.OOO$OO$oOoO$O>8oOOoOo$Oo-OO$.OOO$oOOoO.OOOOOO-",
"$oO$.$OO$%OOOOoO$o$-o$OoOOOOO-o=$.$OoO$OOO$.$$o$-o$OooO$o$-o$OoO",
"-OO%oO$o-oOOo-oO-oOOOOO%OO$Oo$oO$OOOo%o$Oo%oO%o$OOOo%OO-oOOoOOO$",
"%lqzqOOoOO%r%l%O$oOOqlql%OOoO$q:r7OOoOO%b7n7OOoOO*e*i%O$oOOwiwl-",
"OiRJ+OOoOOolAboO$.OO%RIwOOOoOO<VL%OOoOOOlUVoO$.OOOmDioO$.OO*RI<O",
"O%:%oOOoOoO-:%ooOoOoo:&OOoOOoOO:: OooOXO%*%oOOoOoO-:OOoOooOO:&O%",
"ix7qxe7uq%li%wx:ru::lk%lz%iu%wl::lu:uw%un:emqquq%le%ux*uu-7li-ln",
"WCRTcWUcIcIRVRAIUcJJVWLJIIJDcYJJIvEIcIcUJIRvEYcIVKRVIJIIvDIv!LAE",
"WJKYVDVIIcJUDRIcIJRYDEJHJxUUcIVYIKJvJWJYIJRVVHIKvARAYIcIIIEDRIAU",
"Bu!IqRLqRWinQJiEZ5!QqREuMRll!L7QQwRIqJ!nl!DqWGqWWwSWVlEnu!Rq!RwF",
"-OOO.OOO%OOOOOoO$OOOoOoO9>d&O$oOOoOO&y&t%oOXOOO$OO$OOOo$OO$oOOoO",
"%oO$X$-o%OOOOOoO-X$O+&O,shh>O%OO$+;->hag>O;+O-o%Oo$OOOO$oO$oOOo$",
"OOoOoOOoOoOOoOOO$.OO>f9ahagy9y&oO>g9asagg9s&OOoOOoOooOo$XOOOOOo-",
"OoOo.OOoOooooOoOOoOO&ha4ssgaas3&63gsasaassa&OOoOOoOOOoOOoOOo$oXO",
"OoOOoOO.$oO%OoXOO.$O#haassaasgahg2gs3gasaag&OO.$Oo-OooOO.OOoOOoO",
"OoO$OOOoOoO$oOOoOoOo#haggasaagssaagaas4sash>OOoOoO$oOOoOooOo$OO-",
"-o$-.OOoOoOOOOoOOo$O&hhaasaaagagh0gs0gsgahh+OOoOoo$OOoOOoO$o-$oO",
"$oOOoOOOOooOoOOoOoOO#haas4gs0g4hsasaagsgasg#oOoOooOoOOoOoO$o%Oo$",
"-OO$O$OoOOOOOOOO$.OO*hsghag4ghsgg4hs0ashggh>O$.$OO$OOOOO.O$O-OO-",
"-oO%X$-oOOOOOOo$-.O=+gsyshgagh4hg3hhpsggasg+$-XO$oOOoo$$XO-o$Oo$",
"-oOO.OOO-oOOo$oo$OOOo6,+aahgahaagagashag*1*.OOO$OOOoOOo$OOOoOO.O",
"$oOOo$-o%OOOOOoO-o$OoOO@sghagh4hh4hhagss@OOo$-o-OoOOOOO%oO$.OOo$",
"OoOOo$Oo$ooOoOOO$oOOo$OOfagass4sg4haasaa@OOoOOo$OoOoOOo$oOOX$Oo-",
"OooOOOOoOOoOoOOoO.OOoooO;363ss4ss4ha3*9&oXOOOOoOOoOooOoOXOOXooO-",
"OXO$o$O.OOoOoooOO.OO.OOOOOo3sg4sa3hs3OOoooOoOO.OOoOoXOOO.OO.OOo$",
"-oOO.OOo$oOOoOoOOoOOo$OoooOaagass3ss9$oOoOO.OOoOOOOoOooOoOOo$OoO",
"$OOOoOOO-OOOoOOoOo$OoOOoOoO6a83gs1,9&$OOOOOooOO%OoOoOOoOOO$oOOoO",
"Oo$OX$Oo$$oOOOoO$X$-o-OoOOOo%$&hg>$OoOOOOOOoOOo$%oOOOOOOo$-o-Oo-",
"-OO$OOOXOO$$oOOo$.OOO$OO$oOoO$O>8oOOoOo$Oo-OO$.OOO$oOOoO.OOOOOO-",
"$oO$.$OO$%OOOOoO$o$-o$OoOOOOO-o=$.$OoO$OOO$.$$o$-o$OooO$o$-o$OoO",
"-OO%oO$o-oOOo-oO-oOOOOO%OO$Oo$oO$OOOo%o$Oo%oO%o$OOOo%OO-oOOoOOO$",
"%lqzqOOoOO%r%l%O$oOOqlql%OOoO$q:r7OOoOO%b7n7OOoOO*e*i%O$oOOwiwl-",
"OiRJ+OOoOOolAboO$.OO%RIwOOOoOO<VL%OOoOOOlUVoO$.OOOmDioO$.OO*RI<O",
"O%:%oOOoOoO-:%ooOoOoo:&OOoOOoOO:: OooOXO%*%oOOoOoO-:OOoOooOO:&O%",
"ix7qxe7uq%li%wx:ru::lk%lz%iu%wl::lu:uw%un:emqquq%le%ux*uu-7li-ln",
"WCRTcWUcIcIRVRAIUcJJVWLJIIJDcYJJIvEIcIcUJIRvEYcIVKRVIJIIvDIv!LAE",
"WJKYVDVIIcJUDRIcIJRYDEJHJxUUcIVYIKJvJWJYIJRVVHIKvARAYIcIIIEDRIAU",
"Bu!IqRLqRWinQJiEZ5!QqREuMRll!L7QQwRIqJ!nl!DqWGqWWwSWVlEnu!Rq!RwF"
};
