/* XPM */
static char *_20c6e9363164233996df03c461f463fmrPpODSlRPpPxNJt[] = {
/* columns rows colors chars-per-pixel */
"64 64 39 1 ",
"  c #6D4F5B",
". c #7F6770",
"X c #806771",
"o c #816973",
"O c #836A74",
"+ c #846B75",
"@ c #856C76",
"# c #876E78",
"$ c #886E79",
"% c #8B717B",
"& c #8B717C",
"* c #8E737E",
"= c #8F747F",
"- c #8F7480",
"; c #917581",
": c #937784",
"> c #937883",
", c #937884",
"< c #977B87",
"1 c #977B88",
"2 c #987B88",
"3 c #987C89",
"4 c #9B7E8B",
"5 c #9B7F8C",
"6 c #9C7F8C",
"7 c #9C808D",
"8 c #9E818F",
"9 c #9F8290",
"0 c #A18391",
"q c #A38593",
"w c #A48693",
"e c #A38594",
"r c #A58795",
"t c #A68896",
"y c #A88997",
"u c #AA8B9A",
"i c #AB8C9A",
"p c #AC8D9B",
"a c #AD8E9D",
/* pixels */
";trqtu4$O+%$qrqruq%+O$$4tqrur=@O@%;uqquu<@O@%*trqtu6$O+%$0rqruq$",
"9rqqtt90;#48qrqtt004#<08t0rtq98%*q6t0rtr90*$98rqqtt90,@480r0ttq8",
"iuuuqruutqqtuuurqtutrqtuiuuqtuurqttiuu0ruurqrtuuuqruutqqtuuutqtt",
"iuuuqruutqqtuuurqtutrqtuiuuqtuurqttiuu0ruurqrtuuuqruutqqtuuutqtt",
"4q6q46<q404460054<q40481w804486848<r4q2440485<08q46<q404440864<9",
"%;;$$;=$*;##;;$#;;$%;%@*<&#*<%$;*@%<*$$<*$=;@$;;$$;-$*;$#;;$#-;#",
"%4<+#6*+;6$@<6@+4<+&8*@-8%+;4@#4;@%8;+&8$+<4@#4<+#6=+;8$@<6@+<<O",
"++++X+oOo+o+o++o+oOo@X@o@+oo+oo+o+o@+Oo+ooOOoo+++X+oOo+o+o++o+oo",
"ooO@++oO@OoOoO+++oO@+o+X++@+oo+@o+X+O@+Oo+@oOooO@++oO@+oOoO+++oo",
"ooO@++oO@OoOoO+++oO@+o+X++@+oo+@o+X+O@+Oo+@oOooO@++oO@+oOoO+++oo",
"@@@@ooOoO@OO@@@OoOoo@+O+@@@oOoo@+OO#+@ooOo+@OO@@@ooOoO@OO@@@+oOX",
"@+#@@@o@@@O@o$@@@O+@@o#o$@@@+O@@O@o@@@@@o@@++++#@@@o@@@O@o$@@@Oo",
"$@++o@@@+@o#@@+oO@@+@o#@#++o@@@@O@@#++X@@@+++@@++o@@@+@o#@@+oO@+",
"@@o++@++o++@+OO+@+@o+O@++o++@@oOO@+@o@+@++o+@@@o++@+@o++@++O+@@+",
"oOoo++X+oooOoOXO+XOooo+.+.O@ooooX+.+.o+OoOoo+oOoo++X+oooOoO.O+oo",
"oOoo++X+oooOoOXO+XOooo+.+.O@ooooX+.+.o+OoOoo+oOoo++X+oooOoO.O+oo",
"@@+@oo+@+oo++@@Oo+@+Oo++@+@o+@++oOO@+@oO+@+oo+@+@oo+@+oo++@@Oo+O",
"@@@@O+O@++O++$@++O@+@O+o$@@OO@@+O+o$@@O++@+++O@@@O+O@++O++$@++O+",
"@@@@O@O@@+o@O$@+++@@@o@o$@@O++@@o@O#@@O@O@@OO+@@@+@O@@+o@O$@+++O",
"%*%@$;*@$*#@&*@@-*@$&$@%*#@*;#@%%@$*$@&;$@$&@#*%@$;*@$*#@&*@@-=+",
"%*%@$;*@$*#@&*@@-*@$&$@%*#@*;#@%%@$*$@&;$@$&@#*%@$;*@$*#@&*@@-=+",
"#<;+#8*o&1@+;<@O4,o@2$+&4$o,4++<=+@4*o&8$o;<++<;+@8*o%1@+;1@o4<o",
";=,;<,;*<-,;-;<;<;*<;;;-;<;<;*;;;;-=<;<;--<-,;=,;<<;*<-,;-;<;<;&",
"uuuurrrqtutrtuuterqruttruuuqrretttruuuqrrqtttruuurrrqrutrtuutqr0",
"<tiiuu848u4<8aiuu044i444auuur44u94<iuiuu44rr4<riiuu848u4<8aiuuq4",
"*ur4<u4@*4@$qu4<rq$%4$@4a619u%#4=@;a044i;@,<+&ur4<u4@*4@$0u4<rq@",
"*ur4<u4@*4@$qu4<rq$%4$@4a619u%#4=@;a044i;@,<+&ur4<u4@*4@$0u4<rq@",
"=tq48i4@o@@$qt46uq$o@+$4u64tt*O++@;u84qu;+O+@*tq48i4@o@@$0t45uq@",
"4rqqtu84&O<10r0tu04;O;46t0ruq4,+%44t0rut54$@4<rqqtu84*O<10r0tu0<",
"uutuqrtuq40ttuttetur68urutuqrut85trutuqrtu04rtutuertuq40ttuttqtr",
"quqt8q0u8r00rtt008u0t0q0uqr80rqrqq8uqy8qqtqrq8uru8q9u8r00qtrq08r",
"%;==%-*=*;$$*;*&****;$%%>***=**;*%$>*=%;***=$$;==%-*=*;$%*;*****",
"%;==%-*=*;$$*;*&****;$%%>***=**;*%$>*=%;***=$$;==%-*=*;$%*;*****",
"*81+$8;+,8%#48@@44+*8-@,0&+<8$$8<@*0;+*0*@44@$84+$8>+;8%@48#@44+",
"@$$+o$OO+$o+@%@o$@Oo%o@O*@o+$oo$+@o&@+o$oO@#+O$$+o$OOO$o+@%@o#@o",
"ooo+O+oO@OoOoO+O+oO++X+.OO+Ooo+@X+.OO+OOo+@oOooo+O+oO@OoOoO+O+oo",
"+@+@oooo++OO+@@+oooO@OOO@+@oooo@++o@+@oooo+++o@+@Oooo++OO+@@+oo.",
"@@@@+@o++@O+O$@@+O++@O@o$@@++O+@O@o#@@++o@@++O@@@+@o++@O+O$@@+Oo",
"@@@@+@o++@O+O$@@+O++@O@o$@@++O+@O@o#@@++o@@++O@@@+@o++@O+O$@@+Oo",
"$@@@o@+@+@o#+#+O+@@+@o#+$++o@@@@o@+#+@o@+@+++@@@@o@+@+@o#+#+O+@+",
"$@O+o@@@o@O#@++O+@@o@O#+@o+O@@O+O@@@o@o@@+O++@@O+o@@@o@O#@+O++@+",
"OOoo++o+.oOOoOX+@o+Xoo@X+.O@oOooo@X+Xo@+oOoo+oOoo++o+.oOOoOXO@oo",
"++O+oOO+Ooo+O++OoO+Oo.+o+O+oO++O.+o+o@oOO+OXoO+O+oOO+Ooo+O+O+oOo",
"@@@@oO+@++O+@#@Oo+@++O++$@+oO@@+O+O$@@oO+@++OO@@@oO+@++O+@#@Oo++",
"@@@@oO+@++O+@#@Oo+@++O++$@+oO@@+O+O$@@oO+@++OO@@@oO+@++O+@#@Oo++",
"++#@+@o@@+o+o$@@@o@@@o@o$@@++O@@o@o#@@+@o@@O+O+#@+@o@@+o+o$@@@OO",
"$$@@@$$@@#+@$$@+$$@@#@@#$@@#%@@@@@@$@@@%$@@@+@$#@@$$@@#+@$$@+$%+",
"$4,+%8-O*4#@:4#@8<O$4*@*4%O<6@@<;@$4-O;8%O;<@@1<+$8;O*4$@;4#@6<o",
"&**%&;%#**%$%**$;*#*=%%$**$-=$%-&%$**$*;$$-*%$**%%;&#**%$%**$;*@",
"&**%&;%#**%$%**$;*#*=%%$**$-=$%-&%$**$*;$$-*%$**%%;&#**%$%**$;*@",
"rqrtqqq8rqrqqrtrqq8rqrrqqtrqq9qrqrqqrtqq00rqrqqrtqqq8rqrqqqtrqq5",
"8uiittq0qu88qaiutqq8i088auutr08uq04puitt00rt85uiittq00u88qaiutr8",
"*ttq8i2$<q$$9iq8t0%=r*$<a09qt*%0<$-prq8i;%46$&tuq8u4$,q$$8iq8tq$",
"=uq;4i4++$O$qt<<tq@O$O#4u4;qu%O#+@;u8;8i;+@#+*tq;1u4@+$O$0t<<tq@",
"<rqqtu5;@O;;0rqtu0;$o*;4u0rur<*O$;<u0rut4=++;;rqqtu6;@O;;0rqtu0;",
"<rqqtu5;@O;;0rqtu0;$o*;4u0rue<*O$;<u0rut4=++;;rqqtu6;@O;;0rqtu0;",
"ttrtrret8;8rrtrtrrtq;4tquqtrrrr<,tquetrrrt4;qetrtrret8;8rrtrtrrq",
"uiuu0rturtrruuurqrirurttatt0ruttrrratu0ryurtrriuuqrrirteruuurqru",
"*<;2-;*1-<=-;<<;;*<;<*;*4;<;;,;<;;&4;2=;-<;,;*<>1;;*1-<*;;<<;;*<",
"*4<@$5;@;4$#24#@<4@*4*@>6&+;8$$4<@*6;+*8*@<4@%4<@$4<@;4%@<4$@<4+",
"@;*++;@+$;+@*;@O=%O@;@@#<#O%=O+;%@+<%+@;++*=++;=+O;#+$;@@&;@O*&o",
"@;*++;@+$;+@*;@O=%O@;@@@<#O%=O+;%@+<%+@;++*=++;=+O;#+$;@@&;@O*&o",
"                                                                ",
"                                                                "
};
