/* XPM */
static char *b7a69ef861a64b02d0e0489a34c2aa07sEAMzxQbh4hZwT1Y[] = {
/* columns rows colors chars-per-pixel */
"64 64 133 2 ",
"   c #302B1D",
".  c #443D29",
"X  c #4E462F",
"o  c #5F4D28",
"O  c #584F35",
"+  c #62583B",
"@  c #6C6041",
"#  c #766947",
"$  c #777777",
"%  c gray50",
"&  c #896917",
"*  c #8B793C",
"=  c #80724D",
"-  c #8A7B53",
";  c #B0871D",
":  c #A58834",
">  c #AE9D39",
",  c #B5953C",
"<  c #CA8F21",
"1  c #DFB139",
"2  c #948459",
"3  c #9E8C5F",
"4  c #BB9B4B",
"5  c #928562",
"6  c #968865",
"7  c #9B8B64",
"8  c #9C8E69",
"9  c #9F906B",
"0  c #A4946D",
"q  c #AA8D71",
"w  c #A69770",
"e  c #A79871",
"r  c #AB9B73",
"t  c #B09F76",
"y  c #B7A267",
"u  c #BDA768",
"i  c #B0A077",
"p  c #B3A37B",
"a  c #B8A77C",
"s  c #BBAA7E",
"d  c #C3B45A",
"f  c #C8AC65",
"g  c #CFB568",
"h  c #CBB375",
"j  c #D2B771",
"k  c #D2BB75",
"l  c #DDBF7F",
"z  c #E7BD6D",
"x  c #E5C060",
"c  c #E7C56D",
"v  c #E1C27A",
"b  c gray56",
"n  c #979797",
"m  c #B6A886",
"M  c #BEAD80",
"N  c #BCAF90",
"B  c #A7A7A7",
"V  c gray75",
"C  c #C0AF82",
"Z  c #C4B384",
"A  c #C8B687",
"S  c #C9B788",
"D  c #CDBA8A",
"F  c #D1BB85",
"G  c #D1BE8D",
"H  c #CFBE94",
"J  c #C2B69A",
"K  c #D1BE96",
"L  c #C8BDA4",
"P  c #D4C08F",
"I  c #DEC78C",
"U  c #CCC09E",
"Y  c #D6C391",
"T  c #D9C693",
"R  c #DDC995",
"E  c #D3C39A",
"W  c #DCCB9D",
"Q  c #E4C887",
"!  c #EBCF87",
"~  c #E0C78C",
"^  c #E0CC97",
"/  c #EECE94",
"(  c #E2CE99",
")  c #E6D19B",
"_  c #EAD59E",
"`  c #CEC4AE",
"'  c #D6C6A1",
"]  c #D9CAA3",
"[  c #DBCCAC",
"{  c #DED1AD",
"}  c #D4CBB8",
"|  c #DFD2B0",
" . c #E2CFA1",
".. c #E5D2A4",
"X. c #EDD8A0",
"o. c #EFD9A1",
"O. c #E9D8A8",
"+. c #F0D4A1",
"@. c #F1DBA3",
"#. c #F3DDA4",
"$. c #F4DEA5",
"%. c #F1DDAE",
"&. c #F1DEAE",
"*. c #E8D9B0",
"=. c #E3D6B8",
"-. c #E8DAB8",
";. c #EADEBD",
":. c #F3E3BB",
">. c gray81",
",. c #DAD2C2",
"<. c #E5D9C1",
"1. c #E7DDC3",
"2. c #E0D9CC",
"3. c #EBE3CE",
"4. c #ECE3CD",
"5. c #F5E8C8",
"6. c #E6E0D6",
"7. c #EDE6D6",
"8. c #EEEED0",
"9. c #ECE7DF",
"0. c #EFE9D9",
"q. c #F2EBD5",
"w. c #F7EDD5",
"e. c #F4EFE4",
"r. c #F2EEE9",
"t. c #F7F4ED",
"y. c #FAF6ED",
"u. c #FCF8EF",
"i. c #F8F5F3",
"p. c #FCFAF6",
"a. c #FDFBF8",
"s. c #FDFCFA",
"d. c white",
/* pixels */
"J N J N J N J w.,.y.,.d.} N L J J N N L J N p 3.5.E N J ' N m N p p p =.J ;.s.N N 5.L J J J L L q.J N e.p p O.m 3.p p &.p m p E ",
"U 5.m L d.d.9.d.9.6.6.9.6.i.d.p.d.6.d.d.d.2.d.d.6.,.,.0.N J 5.} d.` 2.` d.,.` 3.2.d.} d.} ,.t.2.` d.d.} p.9.6.d.} ` d.,.<.<.J J ",
"r o.p d.` p p ;.p m m m m N 9.` d.d.d.2.i.r.d.L d.L d.J L N J d.d.d.2.i.d.u.` d.3.a.,.d.3.} d.d.} ` a.} 2.,.` ,.6.9.d.9.s.<.m e.",
"N :.m d.N m m q.J J J J N N m N 7.7.d.N N J s.m &.p &.p p m N 0.-.0.p p 3.&.m :.E [ m :.' m :.e.N J 4.N N N N J 2.J 0.L 1.D r 1.",
"p :.p p s.s.m m p 3.p &.m J J =.0.3.3.p p 3.p &.&.3.p p p p p m p W p  .3.&.r o.1.R E ' S &.&.r r r r r r r r r T r p 0.p r r r ",
"p ' p :.O._ r R o.r r r r r o.1.r 1.o.r T r T r o.r ) r o.r o.r r 1.1.o.m m e.| N ' p 3.E 3.' p 3.p p p m &.*.p p p p E p J r o.",
"s Z A ) $.o.a _ #.( M D A S P A G s G A G s A s D D #.#.D D $.#.A D Z G Z T Z G s G S A Z M Z A ( $.o.s _ #.) M D A D G A G M D ",
"M D M D Z Y a T Z A s G A p A D D r A Z Y r G a Y s A D Z A D D a G M G 0 R M D 0 Y A Z s Z D M D Z Y a T Z S a G A a Z D D r Z ",
"Z D D R s ( o.( M ) G S s Z A Z D Z Y s Y s Y M T G G A o.o.A Y R Y a D s P s G A D C D A A D D R s ( o.( M ) G D a A Z A D Z Y ",
"Y T i Z s s 8 0 p s s T G Z a D Y a Y D R a R D P r A a r 7 r C r Y S R r G S G a R D D Z T T p C s s 8 0 i s a T G Z a G Y a G ",
"s D M T ) _ a R o.^ Z G a G G s D A T M T M T s G M ) _ G M o.o.A Y a D S G p P S G A D D Z D M Y ) _ a R o.( Z G a G G s A A T ",
"Y T i S p P Y T Z Y s R Y C Z P T p G P R a ( G D i S a R T D G Z G G T r R D P i R T A A R Y p A a G Y T Z T s R P Z Z Y Y a D ",
"s G G R a T _ T r D D D Z A G s Y p D s T D T s R G D s _ _ M C Z T s P s Y s Y i G Z Y P Z D P R a T _ R r D D D Z A G M Y a D ",
"D T p s A C 0 D D i r ( Y s M Y T s D G ( p R D Y 0 A A i a G A 7 P P Y w T G P s T T A Z P T a a A Z 0 D G p r ( P M s T T M D ",
"s G a G ( ( p ( ( R A D Z G A Z P Z R s T C P s P p ( ( D Z _ ( A Y a R s Y s T A P M P S Z D s G ( ( p ^ ( R A D Z P A Z G A T ",
"D Y a Y Z ^ T ( s P Z T P A A P R s G D R a G D D s P D ( R G A A Y D R a T P Y a T G D C D Y s P Z ^ T ( s P Z T G A Z P R s D ",
"s P a A r s A s 8 S M A Z C D Z G s D s P Z T s P i Z r A Z 0 a M G a Y p R a T i G C D G Z G a A r s A s 8 S M D Z Z D A D s S ",
"D A i G ( Y 7 Z Y D s D G A Z D Y s G A G a T Z C a ( ( a 0 P T s S Z T p Y S P s G D Z A G A i D ( T 7 Z Y G s D D A M D Y M D ",
"M A M A Z Y M R Y T D Y D s s D G r Y s Y a T p Y a D A D D T R S R C T 0 T Z D i Y s D Z A Z C A Z Y M R Y T D Y D M s D G r G ",
"A Y D R M Y _ ( a R D Y A Z D Z D a D Z G C T A T D T s _ _ A S P Y A D M P M D a G A D D D P D R C Y _ ) a R D Y Z Z D Z D s D ",
"P P p 0 p r w r 8 r a P A D Z P Y i P s T p R A T 6 a r r r 0 w 0 Y M T p R D D a P Z D M T P a 0 p r w r 8 r a Y Z D C Y Y p G ",
"Z P s T @._ r ^ o.T s P Z G D s Z S T A T Z T Z G s o.@.A M _ _ s P Z P A D p G S Y A G D D G s Y @._ r R o.T s P Z G D s Z D Y ",
"G P s D M T M T Z D p R D A Z G T a G D ^ r ^ A P s A D D D D D p G D T i R A Y p T P A Z T P s D M T M T Z D i R D S Z G Y s D ",
"A G D Y r T _ T p T G D S A G A P a D Z Y D T Z T D Z s ) ) M A Y T C Y M T M Y r P Z T P D D G Y r Y _ T p T G G A A D A G s A ",
"A T s i r r 5 s Z s r R G s s Y R a D D ( i R Z R r p r 7 0 C Z 0 G D T 0 T P Y i T P D Z G Y M r r r 5 s Z s r R D C s T R s A ",
"C D A ( _ ) a ( R Y s D A G A Z D D T C T Z Y s P D _ _ D A ( ( M D M T M Y s T D Y Z Y S A D A ^ _ ) a ^ R Y s D A P A A D D T ",
"G Y s T C R T T s T M T P Z s Y ( a P S R r P D G Z P D R R Z G Z Y D R r Y P Y a R D D s P Y M T C R T T s T s T G A s Y ^ s D ",
"C D A A 0 S D p r M s D Z A G Z D A Y s G s T s T C a i G Z 0 M r G s Y s R a T Z P M D D A D A A 0 A D p e C a D Z D D A D S P ",
"D P a A ) T 9 S R Z r P G Z D G T a G D P t G D D r R ) s r T T r D D T a T D P a T G C M G P a A ) R 9 A R A r P G A A G T s D ",
"i Z Z P P R p R Y D s D Z s D Z S i D s Y i D r P Z T R Z A T T a G a G r R a D r P C A M s Z Z P P R p R Y G s D C s A A A p Z ",
"A Y A T s ( ) ) Z ( D D Z s A D G s D A P a G A Y S D D ) _ G P Y G C D a Y A D s G S A Z D Y A T s ( ) ) Z ( D D Z M Z D G s D ",
"D P s A r M a r w Z C Y Z Z s D P s T M R p R Z T p Z r C p 0 s a T M T r P C Y s Y Z D Z Y G M A r s a r 0 Z M Y Z A a D G s Y ",
"Z P s T _ ( 0 D _ T Z G Z D D M D Z T A T Z Y Z G s _ _ A r ) _ Z Y M G Z D s G Z Y D G G A P s Y _ ( w D _ T Z G Z D D M D Z Y ",
"D P r Z a P D T D P s R A A A D Y a Y A R r ^ Z G r A s Y G G Y s P A T p R Z P a Y P Z Z P G i Z s G D T D Y a R A A A G Y s P ",
"A G G ) M ( @.) s R G D D Z G M P a D A Y D T Z T Y T Z @.@.A D Y Y Z Y M Y s P i Y A Y P D G G ) C ( @.) s R G D D A D C G a A ",
"Z T a p r s p Z a 0 r R D s C P R p D S ( p R Z T w s i a s M p 5 T S Y 0 T G P i Y P D A D T s p r s p Z a 0 r R D M M P R a S ",
"Z G s Y o.( i ) @.R Z G D D S Z D D T Z T Z Y M P s _ o.A Z @.o.Z Y Z T M P s T D P A P D A D s P o.) i ) @.^ Z P A G A Z D D T ",
"D T r S Z T Z T M D C Y G A Z P ( a Y A R r P D D r D D P D G Z M Y Z ^ i T P Y a R D D s G T i A Z T Z T M D M Y D D M Y ( a G ",
"a D C T p G ( P r T A D A Z P Z G M D M Y S Y a P Z D a ^ ( a Z D G s P s R a T a G Z G P M D Z Y a D ( Y r T A D Z A G Z D Z D ",
"P G 0 Z D C 5 r s s r D G Z C G T a D D Y p R D Z 0 G A r 6 a C r A Z T r T D Y p Y G Z A T G w M D Z 5 r a M r D G Z M P T a A ",
"s s Z G T R a ( ) ( G D A Z M Z D a Y i G s T r D s R R D A _ ) G T s T r Y s D s D a D S Z s Z D T ^ s ( ) ( G D Z Z s A D a Y ",
"D T Z T M T R ( M T Z R G s A D G r D G P s T D T Z Y M ( ( D D D Y G D p Y D S r T D A A G T Z Y M Y R ( M R Z R G s Z D G i A ",
"D D C a r p Z s 6 s Z D s D S A G a P i Y a R M T r M 0 C Z 0 e a Y a P s T M G s D s D Z G D Z p r i Z s 6 s C G s D A S G a P ",
"G T r A _ T 9 D ^ S s Y G D A A S C Y D T Z T G G w ^ ) s r R R p P D T M D Z D Z R D G D P T i Z _ R 0 D ^ D a Y D D Z A S Z G ",
"Z D M G D T a R G D i T C D S Z G M Y C R i R s P s P Y Z A Y Y r G Z Y s Y a T M P D S Z D D M G D T a T D D r R M G A Z D Z Y ",
"P Y A T s ( _ ( M ( G P P Z D D P a D D Y A R D Y D D A _ _ D G T P D T a T Z Y r T D P D Y P S T s ( _ ) M ( D P P Z D G G s Z ",
"M Y C r 6 0 0 p r a a T A C Z D R i D C R a R s R r e 7 0 r r a r Y Z Y r T D Y r P A G A A G Z r 7 0 0 p r a p T Z Z Z G R p A ",
"D G S R _ R r ( _ T a P G D Z D D D P D R C Y Z Y D _ _ M C _ _ M D D T s Y C T A Y G G A D D D R _ R r ( _ R a P D D Z D D D G ",
"A Y a P A T A P s D s G D A s G R a T C T i Y A G s Y D P D Z S a Y C R r Y D T a R Z D s D P s P A T A P s D s P D D s G R s G ",
"Z D D T r T ) D a Y Z P D A G A G A P Z Y s Y C Y G Z s ) ^ i G Z G A Y s T M T Z P A D A D D D T r Y ) D p Y C P S A D D D D G ",
"G T r a D S 7 r Z i r P D Z A G Y a G D P r T D G 0 A D p 8 s Z 7 D A T p R A Y p T D C C P T i a D D 7 r Z p 0 P D A Z P Y s D ",
"r C A R _ ) a ) _ T M S C Z G Z D a D s P a D r G A _ _ A A _ _ M G a G s T a G p G C S Z a M A R _ ) a ) _ T M D M Z D Z A s S ",
"A T M D s R G R Z Y C G D a Z G P r S D Y r G A Y M Z D Y T D D A D A D r T S D r Y D Z s D Y C D s R G R Z Y C G D a Z G G i Z ",
"Z D A Y r D T A r Y D D s A C Z D Z T a T a T s T Z S p T Y r A D T p P i P s Y Z D M G Z D D S P r D T A r Y D G a D M A D Z T ",
"G T i D T G 6 a Y A s Y G A Z A G s Y D T C T G G i R T a 7 D Y a Y S T a D A D s R G D D P T p D T G 6 a P D s Y D A C S G s G ",
"M D a D D R Z R R T s Y s D D Z G C T M R p R s G p P G Y D ^ ( C Y s G M T s Y Z G D A S A D s A D R Z R R T s T s D D Z D C T ",
"Y Y Z R s R _ ( C ( D P Y C D D P a D G T A R G P S Y C _ _ D P P P D T a T Z P r T G G D T Y Z R M R _ ( C ( D Y Y Z A D P a A ",
"s Y Z Z r Z D S r r s Y Z C A A R r G M R s T s R a s r D G a r 0 T s Y r T A P r G A G D Z P Z C r Z D D r r a Y Z Z A A R i D ",
"P Y s D ( P 0 R _ D a ( T Z Z G G D G Y R s T D G p R ( a s _ ( r P T Y p Y A Y Z T R D A Y Y s S ( Y 0 R _ D p ( T Z C G D D D ",
"p &.m H K p p ..p r r o.r o.o.1.r r T r r r r r &.3.] p 3.p p ..r Y r o.r o.r r r r r r r r D 1.r r R Z r r o.r o.1.D D r D r o.",
"r 2 0 7 - { 7 7 =.I 0 F 7 0 0 0 o.p p p p E  .p r r r r 1.r r r r r p W 3.p m p p p p p E &.:.p p p r 2 0 0 I 0 { =.T r r r 1.A ",
"0 m m p r 4.p 2 >...J P N 2 3 ` 8.J p 0 p 2 j r r 0 K 3 p r r 2 0 m 2 - # c - # + + + # 4 1 c @ 2 # - 3 = # : 2 { { 1.r p 7 { y ",
"= 0 r = - - +.- 3 + - F + [ 3 2 - # r - m p n J m r = 3 / r >.m 2 = . B 2 V 3 p - 3 3 q b p - X - B X $ - ` 3 2 n X 3 2 r r 2 - ",
"& ; O @ k 4 = = @ 0 - g h - T h 0 7 h { 0 7 ! ( &.m l ~ r 3 # - + # % d 2 Q # O = @ + * 2 =.2 3 = k v @ ,   o @ > f - T z < u x "
};
