/* XPM */
static char *fce87e4f5ed74932a3fdba62a1348572dtzOaBFA56OSaW6f[] = {
/* columns rows colors chars-per-pixel */
"64 64 64 1 ",
"  c #58474E",
". c #5E4C53",
"X c #614F56",
"o c #625057",
"O c #655259",
"+ c #6A565E",
"@ c #6C5760",
"# c #6E5961",
"$ c #725D65",
"% c #755F68",
"& c #776069",
"* c #7B636D",
"= c #7E6770",
"- c #7F6873",
"; c #806771",
": c #846B75",
"> c #876D78",
", c #896F79",
"< c #8C727C",
"1 c #90747F",
"2 c #8E7480",
"3 c #927681",
"4 c #957985",
"5 c #987B87",
"6 c #977B88",
"7 c #987C88",
"8 c #997C88",
"9 c #987C89",
"0 c #9A7C88",
"q c #9B7E8B",
"w c #9C7E8A",
"e c #9D7F8B",
"r c #9E808D",
"t c #9F8290",
"y c #A08390",
"u c #A38593",
"i c #A48693",
"p c #A38694",
"a c #A68796",
"s c #A78896",
"d c #A78897",
"f c #A88997",
"g c #A98A99",
"h c #AB8C9B",
"j c #AC8D9B",
"k c #AC8D9C",
"l c #AF909F",
"z c #B0909F",
"x c #B191A0",
"c c #B393A2",
"v c #B594A4",
"b c #B796A5",
"n c #B897A7",
"m c #B997A8",
"M c #BA98A8",
"N c #BD9BAB",
"B c #C09DAE",
"V c #C29FB0",
"C c #C4A0B1",
"Z c #C7A3B4",
"A c #C9A4B6",
"S c #C9A5B7",
"D c #CBA7B9",
"F c #CDA8BA",
/* pixels */
"#4<4*O<<3;X>4,4++4<4*O,<<3+>4,4#+4<4*O<<3;X>4,4++4<4*O,<<3+>4,4$",
"3,$:3*3$%<&<;&<:<<$:3*3&=3*<:%,><<$:3*3$%<&<;&<:<<$:3*3&=3*<:%,,",
":0#3<+0**0.;3$0&*0#3<o4<&0O*4$0**0#3<+0**0.;3$0&*0#3<o4<&0O*4$0;",
"=5>1,*1,1<$;,,<&*5>1,=<<3<O;,><**5>1,*1,1<$;,,<&*5>1,=<<3<O;,><*",
"4<#<<#5%+3;4*O3:<<#<<&5$&3&4=O<,<<#<<#5%+3;4*O3:<<#<<&5$&3&4=O<<",
"=0*0:X4<;5o,4:5$&0*0:O5<:3.>4;5%&0*0:X4<;5o,4:5$&0*0:O5<:3.>4;5*",
"%3<<<,<>3,$<,&3*$4<<<:31<<:<<&<;$4<<<,<>3,$<,&3*$4<<<:31<<:<<&<>",
">3+,4*0$%4$4*%w#*3+,4*0$&w*4;$w$*3+,4*0$%4$4*%w#*3+,4*0$&w*4;$w%",
"$4:0:O5<<< :4<3&#5:0:O5><4o;5<4*$5:0:O5<<< :4<3&#5:0:O5><4o;5<3:",
"3<;<<*3,>3*<>$<<<<;<<;<:=3&<,$<<<<;<<*3,>3*<>$<<<<;<<;<:=3&<,$<3",
"<0+>3$0#=w+<<&r%;0+>3#4&*4.><&w&;0+>3$0#=w+<<&r%;0+>3#4&*4.><&w*",
"*4:4>$0,10*>3<4&:0:4<#,<<<:r4<02*4:4>$0,10*>3<4&:0:4<#,<<<:r4<00",
";<$><0s*>b:5:#3:0h%<x33#%4:Cu#zh=<$><0s*>b:5:#3:0h%<x33#%4:Cu#kM",
"$0&<>#B3kMo,4&w$=S4bj#0><3.gC3D<#0&<>#B3kMo,4&w$=S4bj#0><3.gC3D0",
",<:<;$0pkr%><:3*>iax<&1<;=*<hab>:<:<;$0pkr%><:3*>iax<&1<;=*<hab,",
",4X=3*0%;5.<>+3%;4O:3$5%X4$><$4&;4X=3*0%;5.<>+3%;4O:3$5%X4$><$4=",
"&0>3<*0<3,$44<4$$w>3<;0<>5*44,4%$w>3<*0<3,#44<4$$w>3<;0<>5*44,4*",
"k0&<kga;*uyn2$sau0&<krM<:gsn4$aga0&<kga;*utn2$spu0&<krM<:gsn4$az",
"sB$xM<Z33D;xN3S>0B%xM%Vx<S,kB3S>0B$xM<Z33D;xN3S>0B%xM%Vx<S,kB3S3",
"4Vrng6nxnn<uMzk64ZkMk0xMmM*rMkk04Vrng4bxnn<uMzk64ZjMk0xMmM*tMkku",
"nk#0b<C42ngM2$xkzn<gn4V46M0M4#zxxk#0b<C42ngM2$xkzn<gn4V46M0M4#zM",
"rS4Cs+Vx0S*jNrS>4S4Sg%CxrC#gBrS46S4Cs+Vx0S*jNrS>4S4Sg%CxrC#gBrSy",
"*Mxx40xxMx&5nwr;:NxxxubNxxtxMrba&Mxz40xxMx&5nwr;;NxxxubNxxtxMrxx",
":0*,43Z24B<4,&w$0M;sVrC22SuNs<D3*0*,43Z23B,4,&w$0M;sVrC22SuNs<S0",
"#5;0,+Cbkn.:4<4&;CuZk$CgkC$tCxV0$5;0,+Cbkn.:4<4&;CuZk$CgkC$tCxBa",
"<<>3<*rxg0*,<&<<gbgnb<ukyr*gx3kb<<>3<*rxf0*,<&<<gbsnb<ukyr*gx3kB",
",0+;4&4%*w#,<$w*uS=uV&4=*4Xgb<Dr:0+;4&4%*w#,<$w*uS=pV&4=*4Xgb<Dg",
"*5>4,O4<33O:4<0&2CsBk$3310<uNbC4&0:4,O4<33O:4<5%2CsBk$3310<uNbCr",
"<<&,<*<;*3&4>$3<gb3jxrn>;M0Bk>bx<<&,<*<;*3&4>$3<gb3jxrm>;M0Bk>bB",
";0&,>o4*:4O<4$0&2S3kh*ShkB&kC<S0*0%,>X4*;4O<4$0&2S3kh*SjkB&kC<Zu",
"p0<34&,<<<<g3:0<rbkby3pghhgxbaN0r0,34&,<<<,g3:5<rbkby3pghhgxbaNt",
"4N%ub&4#%3$Ba@k0<N=sb>N:*C4Nk%xr2N%ub&4#%3$Ba@k0<N=sb>N:*C4Nk&xj",
">VkNr$4,<>#kVaV-=VhNr%xxkN;gVaV>-VjNr$4,<>#jVaV-=VhNr%xxkN;gVaB<",
"Nk<aM0b**j0xu3ksxk<aM0N4rNrxa2khxk<aM0b**j0xu3ksxk<aM0N4rNrxa2kl",
"sS>Nx:SrrS$pN<S40S>Nx%Cx4D*rB,S0rS>Nx:SrwS$uN<S40S>Nx%Cx4D*rB,Za",
"rChnk0bknx<ukjb40ChnkrxbMb*ukgb60Chnk0bknx<ukhb46ChnkrxbMb*ukgb0",
"Nb>xb>C2:NuV0*Msxb>xb4C<4N4Br&nkxb>xb>C2:NuV0*Msxb>xb4C<4N4Br&bx",
"yZ0Dr+BxaZ$kBaC=4S0Dr$ZxsN+fCaC:4S0Dr+BxaZ$kBaC=4S0Dr$ZxsN+gCaV<",
"=nxg3>rhnu$4h4w*&nxg4:fnkw;4g30=*nxg3>rgnu$4h3w*&nxg4:fnkw;4g30>",
">4$<3*0&;4$4=%w#*5$<3*0**w*4;$w$*5$<3*0&;4$4=%w@*5$<3*0**w*4;$w&",
"$4:0:+0<<3.:4<3*&5:0,+5><4O:4<44%4:0:+0<<3.:4<3*&5:0,+5><4O:4<4r",
"3<;<<4s,<x3<>$<<ka;4z<<:=3=j3%jx<<;<<4s,<x3<>$<<ka;4z<<:=3=j3%jM",
"<0+>3>S=rF*,<&r&uS*sN$4&*4Xhx3F4;0+>3>S=rF*,<&r&uS*sN$4&*4Xhx3Fr",
"*4:4>$BkMk$>3<4&;BgCu+,<<<*3bbN;&4:4>$BkMk$>3<4&;BgCu+,<<<*3bbN,",
";<$><:w6<4$5:#3:*0>u3>4#%4&4<*0>*<$><:w6<4$5:#3:*0>u3>4#%4&4<*53",
"$0&<>X4&>3.<4&w$#0&<>+0><3.>4%0%#0&<>X4&>3.<4&w$#0&<>+0><3.>4%0*",
",<:<;$>;<3%><:3*:<:<;&<<;=*><:3;:<:<;$>;<3%><:3*:<:<;&<<;=*><:3:",
"<4X=3*0$*5.<>+3&;4X=3$5%X4$>,+3*;4X=3*0$*5.<>+3&;4X=3$5%X4$>,+1;",
"$0>4>#0<3,X>4<3O#w>4>#3<,4+:4<4+#w>4>#0<3,X>4<3O#w>4>#3<,4+:4<3#",
",<&;<><;*>=3=$<;;<&;<*4*;3:3;#<>:<&;<><;*>=3=$<;;<&;<*4*;3:3;#<<",
":4o<3$0&&w+<3%0#*4o<3o4<%0#,4%0#*4o<3$0&&w+<3%0#*4o<3o4<%0#,4%0%",
"&4=<>*1<11$;3<,*&0>3,*<333O=3<,*&4=<>*1<11$;3<,*&0>3,*<333O=3<,;",
"1,.*<$4&%3>3%X<,<1$>1&4&*3*3&.<<<,.*<$4&%3>3%X<,<1$>1&4&*3*3&.<3",
"*0&4>.4<*0O,3=0%&0&0>o5<=4.>4*0&&0&4>.4<*0O,3=0%&0&0>o5<=4.>4*0;",
"#4<<<><<3<#<3=<=+4<<<;<3<<;<3*<;#4<<<><<3<#<3=<=+4<<<;<3<<;<3*<<",
":3+:4*5%&4&4;$w$*3+:4*5%%0;4:$w%*3+:4*5%&4&4;$w$*3+:4*5%%0;4:$0*",
"#5;0,.4<,3 :4<4&+5;0,o5>,5O=5<4*#5;0,.4<,3 :4<4&+5;0,o5>,5O=5<4:",
"<<>3<&,<,1*,<&<<><>3<=<,;<%><%<<,<>3<&,<,1*,<&<<><>3<=<,;<%><%<4",
",0+;4&4#*w#,<$w*;0+;4#4&&4.><$w=;0+;4&4#*w#,<$w*;0+;4#4&&4.><$0:",
"&5:4,o4<31O;3<5%%5:4,o<31<$;3<5&&5:4,o4<31O;3<5%%5:4,o<31<$;3<5=",
"<<%,<*<;*3&4>$1<><%,<=3*%4*4,#<<,<%,<*<;*3&4>$1<><%,<=3*%4*4,#<4",
"*0%,>X4&;4o<4$0%%0%,>O0>>4O,4$0*%0%,>X4&;4o<4$0%%0%,>O0>>4O,4$0;",
":<,<=#,<<<*<<:4&=<,<;%;>>>:<<:4*=<,<=#,<<<*<<:4&=<,<;%;>>>:<<:4=",
"*3O;3&4+$3+4:X<*&3O;3%4Oo4*4>X,;&3O;3&4+$3+4:X<*&3O;3%4Oo4*4>X,<"
};
