/* XPM */
static char *_4098b751cc94342e9d6c9a30c008de2WZDNwqSzawl094Mx[] = {
/* columns rows colors chars-per-pixel */
"64 64 2 1 ",
"  c black",
". c white",
/* pixels */
"                                                                ",
".                                                             . ",
" .                                                           .  ",
"  .                                                         .   ",
"   .                                                       .    ",
"    .                                                     .     ",
"     .                                                   .      ",
"      .                                                 .       ",
"       .                                               .        ",
"        .                                             .         ",
"         .                                           .          ",
"          .                                         .           ",
"           .                                       .            ",
"            .                                     .             ",
"             .                                   .              ",
"              .                                 .               ",
"               .                               .                ",
"                .                             .                 ",
"                 .                           .                  ",
"                  .                         .                   ",
"                   .                       .                    ",
"                    .                     .                     ",
"                     .                   .                      ",
"                      .                 .                       ",
"                       .               .                        ",
"                        .             .                         ",
"                         .           .                          ",
"                          .         .                           ",
"                           .       .                            ",
"                            .     .                             ",
"                             .   .                              ",
"                              . .                               ",
"                               .                                ",
"                              . .                               ",
"                             .   .                              ",
"                            .     .                             ",
"                           .       .                            ",
"                          .         .                           ",
"                         .           .                          ",
"                        .             .                         ",
"                       .               .                        ",
"                      .                 .                       ",
"                     .                   .                      ",
"                    .                     .                     ",
"                   .                       .                    ",
"                  .                         .                   ",
"                 .                           .                  ",
"                .                             .                 ",
"               .                               .                ",
"              .                                 .               ",
"             .                                   .              ",
"            .                                     .             ",
"           .                                       .            ",
"          .                                         .           ",
"         .                                           .          ",
"        .                                             .         ",
"       .                                               .        ",
"      .                                                 .       ",
"     .                                                   .      ",
"    .                                                     .     ",
"   .                                                       .    ",
"  .                                                         .   ",
" .                                                           .  ",
".                                                             . "
};
